<?xml version="1.0" encoding="UTF-8"?>
<svg version="1.1" xmlns="http://www.w3.org/2000/svg" width="64" height="64">
<path d="M0 0 C6.625 -0.125 6.625 -0.125 10 1 C9.67 2.98 9.34 4.96 9 7 C10.32 6.01 11.64 5.02 13 4 C16.36720387 5.39332574 17.9859524 6.9789286 20 10 C19.34 11.32 18.68 12.64 18 14 C17.34 14 16.68 14 16 14 C16 14.66 16 15.32 16 16 C17.65 16 19.3 16 21 16 C21 18.97 21 21.94 21 25 C17 26 17 26 15 26 C15.66 26.99 16.32 27.98 17 29 C17 29.99 17 30.98 17 32 C14.1875 34.25 14.1875 34.25 11 36 C8 35 8 35 6 33 C5.67 34.32 5.34 35.64 5 37 C2.36 37 -0.28 37 -3 37 C-3.66 35.02 -4.32 33.04 -5 31 C-6.65 31.66 -8.3 32.32 -10 33 C-12.0625 30.75 -12.0625 30.75 -14 28 C-13.81740836 24.89594204 -12.77223991 23.65835987 -11 21 C-12.65 21 -14.3 21 -16 21 C-16.125 14.25 -16.125 14.25 -15 12 C-12.4375 11.375 -12.4375 11.375 -10 11 C-10.66 10.01 -11.32 9.02 -12 8 C-18.39778354 9.58899199 -22.36357637 11.15968325 -26 17 C-28.04238864 21.46125444 -28.30982149 24.96671406 -26.9375 29.6875 C-25.11345587 34.39758729 -22.23126862 37.1469125 -18.38671875 40.33984375 C-15.84096507 43.38757703 -16.27876206 47.15308363 -16 51 C-12.7 51 -9.4 51 -6 51 C-5.7525 49.411875 -5.505 47.82375 -5.25 46.1875 C-4.7463734 42.95589601 -4.44666007 41.44573722 -2.109375 39.11328125 C-1.41328125 38.74589844 -0.7171875 38.37851562 0 38 C0.99 38.33 1.98 38.66 3 39 C3 39.66 3 40.32 3 41 C2.360625 41.53625 1.72125 42.0725 1.0625 42.625 C-1.86715451 45.99854156 -1.63874648 48.59270705 -2 53 C-2.33 53.33 -2.66 53.66 -3 54 C-3.2253331 56.0279979 -3.44767185 58.05674874 -3.62109375 60.08984375 C-4 62 -4 62 -6 64 C-8.3125 64.30078125 -8.3125 64.30078125 -11 64.3125 C-11.886875 64.32925781 -12.77375 64.34601563 -13.6875 64.36328125 C-14.450625 64.24339844 -15.21375 64.12351562 -16 64 C-18.26114443 60.60828336 -18.71333041 57.9962659 -19.4375 54.05859375 C-19.87275231 51.79676721 -19.87275231 51.79676721 -22 50 C-22.66 49.67 -23.32 49.34 -24 49 C-24.66 49.99 -25.32 50.98 -26 52 C-29 52.375 -29 52.375 -32 52 C-32.66 51.01 -33.32 50.02 -34 49 C-35.485 49.495 -35.485 49.495 -37 50 C-39.1875 48.875 -39.1875 48.875 -41 47 C-41.25 44.3125 -41.25 44.3125 -41 42 C-41.66 41.67 -42.32 41.34 -43 41 C-43.125 37.625 -43.125 37.625 -43 34 C-42.34 33.34 -41.68 32.68 -41 32 C-40.87625 31.175 -40.7525 30.35 -40.625 29.5 C-40 27 -40 27 -38.0625 25.625 C-36 25 -36 25 -34 26 C-33.67 25.01 -33.34 24.02 -33 23 C-32.34 23 -31.68 23 -31 23 C-30.979375 21.845 -30.95875 20.69 -30.9375 19.5 C-30.23609847 13.93818223 -27.13597853 10.58286364 -23 7 C-18.01024141 4.18759061 -13.59545862 3.541496 -8 3 C-7.071875 2.7525 -6.14375 2.505 -5.1875 2.25 C-3 2 -3 2 -1.1875 3.4375 C-0.5996875 4.2109375 -0.5996875 4.2109375 0 5 C0 3.35 0 1.7 0 0 Z M3 3 C2.34 4.65 1.68 6.3 1 8 C-1.76276177 7.47731534 -4.3260876 6.89130413 -7 6 C-7 8.64 -7 11.28 -7 14 C-8.98 14.66 -10.96 15.32 -13 16 C-13 16.66 -13 17.32 -13 18 C-10.525 18.99 -10.525 18.99 -8 20 C-8.165 20.7425 -8.33 21.485 -8.5 22.25 C-9.11925696 25.19006578 -9.11925696 25.19006578 -9 29 C-5.535 28.505 -5.535 28.505 -2 28 C-1.67 29.98 -1.34 31.96 -1 34 C-0.01 34 0.98 34 2 34 C2.33 32.35 2.66 30.7 3 29 C8.75 29.75 8.75 29.75 11 32 C11.66 31.01 12.32 30.02 13 29 C12.19595537 25.8371515 12.19595537 25.8371515 11 23 C14.465 22.505 14.465 22.505 18 22 C18 21.01 18 20.02 18 19 C16.68 18.67 15.36 18.34 14 18 C13.67 16.02 13.34 14.04 13 12 C13.99 11.67 14.98 11.34 16 11 C15.67 10.34 15.34 9.68 15 9 C12.36 9 9.72 9 7 9 C6.67 7.02 6.34 5.04 6 3 C5.01 3 4.02 3 3 3 Z M-37 29 C-36.67 30.65 -36.34 32.3 -36 34 C-35.01 33.01 -34.02 32.02 -33 31 C-34.32 30.34 -35.64 29.68 -37 29 Z M-31 34 C-31.66 34.66 -32.32 35.32 -33 36 C-32.6814823 38.10820797 -32.6814823 38.10820797 -32 40 C-30.35 40.33 -28.7 40.66 -27 41 C-26.63019987 36.95377498 -26.63019987 36.95377498 -29 34 C-29.66 34 -30.32 34 -31 34 Z M-40 36 C-39.67 36.99 -39.34 37.98 -39 39 C-38.01 39.33 -37.02 39.66 -36 40 C-36 38.35 -36 36.7 -36 35 C-37.36893239 34.94729537 -37.36893239 34.94729537 -40 36 Z M-36 40 C-36.33 41.98 -36.66 43.96 -37 46 C-35.68 45.34 -34.36 44.68 -33 44 C-33.99 42.68 -34.98 41.36 -36 40 Z M-24 41 C-24 41.66 -24 42.32 -24 43 C-24.99 43.495 -24.99 43.495 -26 44 C-23.525 44.495 -23.525 44.495 -21 45 C-21.66 43.68 -22.32 42.36 -23 41 C-23.33 41 -23.66 41 -24 41 Z M-32 44 C-31.34 45.65 -30.68 47.3 -30 49 C-29.34 49 -28.68 49 -28 49 C-27.67 47.35 -27.34 45.7 -27 44 C-28.65 44 -30.3 44 -32 44 Z M-15 55 C-15 55.33 -15 55.66 -15 56 C-12.36 56 -9.72 56 -7 56 C-7 55.67 -7 55.34 -7 55 C-9.64 55 -12.28 55 -15 55 Z M-15 59 C-14.67 59.66 -14.34 60.32 -14 61 C-12.02 61 -10.04 61 -8 61 C-7.67 60.34 -7.34 59.68 -7 59 C-9.64 59 -12.28 59 -15 59 Z " fill="#FF4720" transform="translate(43,0)"/>
<path d="M0 0 C3.03437855 2.02291903 3.81161043 3.42227198 4.9375 6.875 C5.0174078 10.87038992 4.35235238 12.76551547 2 16 C-1.653135 17.62361556 -3.84393228 18.28901693 -7.75 17.3125 C-11.74449339 14.98237885 -11.74449339 14.98237885 -13 13 C-13.63025284 8.11554047 -13.74637221 6.11955831 -11 2 C-6.84437903 -0.77041398 -4.93332128 -0.70476018 0 0 Z M-8.8125 4.1875 C-10.42525784 6.64907776 -10.4334014 8.11065736 -10 11 C-8.98029682 12.93654948 -8.98029682 12.93654948 -7 14 C-3.95788569 14.4167552 -3.95788569 14.4167552 -1 14 C1.29827312 12.12061828 1.29827312 12.12061828 1.3125 9.0625 C1.23696753 6.06545805 1.23696753 6.06545805 -0.1875 4.125 C-3.24563169 2.22684929 -5.79623169 2.21132421 -8.8125 4.1875 Z " fill="#FF4720" transform="translate(50,10)"/>
<path d="M0 0 C0.99 0.33 1.98 0.66 3 1 C3 3 3 3 1.0625 5 C0.381875 5.66 -0.29875 6.32 -1 7 C-2.5547669 10.10953379 -2.28644437 12.56266761 -2 16 C0.50865802 20.92082919 3.47576514 23.0159302 8 26 C11 30.2 11 30.2 11 33 C6.71323254 32.5236925 4.88190868 30.01914242 2 27 C0.94697498 26.13417943 -0.11562577 25.27987318 -1.1875 24.4375 C-4.38376916 21.66740006 -5.73321299 19.85199818 -6.3359375 15.66796875 C-6.43247163 9.53805166 -5.61348832 5.9951162 -2 1 C-1.34 0.67 -0.68 0.34 0 0 Z " fill="#FF4720" transform="translate(23,12)"/>
<path d="M0 0 C3.45925163 1.2491742 6.14693203 2.67527795 9 5 C8.67 5.99 8.34 6.98 8 8 C4.06326356 6.68775452 1.77280706 5.08089673 -1 2 C-0.67 1.34 -0.34 0.68 0 0 Z " fill="#FF4620" transform="translate(3,5)"/>
<path d="M0 0 C1.32 0 2.64 0 4 0 C4 2.64 4 5.28 4 8 C2.68 8 1.36 8 0 8 C0 5.36 0 2.72 0 0 Z " fill="#FF4921" transform="translate(45,48)"/>
<path d="M0 0 C3.91402949 1.26941497 5.79072873 2.51167694 8 6 C7.01 6.66 6.02 7.32 5 8 C3.02 6.35 1.04 4.7 -1 3 C-0.67 2.01 -0.34 1.02 0 0 Z " fill="#FF431F" transform="translate(51,45)"/>
<path d="M0 0 C0.33 0.99 0.66 1.98 1 3 C-2.3 3.66 -5.6 4.32 -9 5 C-8.67 3.68 -8.34 2.36 -8 1 C-5.10765685 0.17361624 -3.11257569 0 0 0 Z " fill="#FF4A1F" transform="translate(10,16)"/>
<path d="M0 0 C1.32 0 2.64 0 4 0 C4.66 2.97 5.32 5.94 6 9 C4.68 9 3.36 9 2 9 C1.34 6.03 0.68 3.06 0 0 Z " fill="#FF431E" transform="translate(11,0)"/>
<path d="M0 0 C2.64 0 5.28 0 8 0 C8 0.99 8 1.98 8 3 C5.36 3 2.72 3 0 3 C0 2.01 0 1.02 0 0 Z " fill="#FF4820" transform="translate(52,39)"/>
<path d="M0 0 C0.99 0 1.98 0 3 0 C3 1.32 3 2.64 3 4 C2.01 4 1.02 4 0 4 C0 2.68 0 1.36 0 0 Z " fill="#FF4721" transform="translate(31,47)"/>
</svg>
