<svg xmlns="http://www.w3.org/2000/svg" xmlns:xlink="http://www.w3.org/1999/xlink" width="70" zoomAndPan="magnify" viewBox="0 0 52.5 30.000001" height="40" preserveAspectRatio="xMidYMid meet" version="1.0"><defs><clipPath id="c1a43bdd2c"><path d="M 0.605469 0 L 51.410156 0 L 51.410156 29.03125 L 0.605469 29.03125 Z M 0.605469 0 " clip-rule="nonzero"/></clipPath><clipPath id="d8eec0e5cb"><path d="M 15 11 L 50.570312 11 L 50.570312 19 L 15 19 Z M 15 11 " clip-rule="nonzero"/></clipPath><clipPath id="42fa6a4976"><path d="M 1.214844 8.8125 L 14 8.8125 L 14 21.875 L 1.214844 21.875 Z M 1.214844 8.8125 " clip-rule="nonzero"/></clipPath><clipPath id="7d8e00742d"><path d="M 7 8.8125 L 14 8.8125 L 14 21.875 L 7 21.875 Z M 7 8.8125 " clip-rule="nonzero"/></clipPath></defs><g clip-path="url(#c1a43bdd2c)"><path fill="#ffffff" d="M 0.605469 0 L 51.410156 0 L 51.410156 29.03125 L 0.605469 29.03125 Z M 0.605469 0 " fill-opacity="1" fill-rule="nonzero"/><path fill="#ffffff" d="M 0.605469 0 L 51.410156 0 L 51.410156 29.03125 L 0.605469 29.03125 Z M 0.605469 0 " fill-opacity="1" fill-rule="nonzero"/></g><g clip-path="url(#d8eec0e5cb)"><path fill="#b52e31" d="M 15.753906 18.5 L 15.753906 12.5625 L 16.53125 12.5625 L 20.234375 17.339844 L 20.234375 12.5625 L 20.976562 12.5625 L 20.976562 18.5 L 20.195312 18.5 L 16.492188 13.675781 L 16.492188 18.5 Z M 27.007812 18.265625 C 26.515625 18.445312 25.988281 18.539062 25.429688 18.539062 C 23.234375 18.539062 22.140625 17.511719 22.140625 15.445312 C 22.140625 13.496094 23.199219 12.515625 25.3125 12.515625 C 25.917969 12.515625 26.488281 12.601562 27.007812 12.761719 L 27.007812 13.421875 C 26.488281 13.222656 25.949219 13.128906 25.402344 13.128906 C 23.746094 13.128906 22.917969 13.902344 22.917969 15.425781 C 22.917969 17.078125 23.734375 17.898438 25.363281 17.898438 C 25.621094 17.898438 25.910156 17.859375 26.226562 17.792969 L 26.226562 15.804688 L 27.007812 15.804688 Z M 28.257812 16.210938 L 28.257812 12.5625 L 29.035156 12.5625 L 29.035156 16.210938 C 29.035156 17.351562 29.613281 17.925781 30.777344 17.925781 C 31.933594 17.925781 32.519531 17.351562 32.519531 16.210938 L 32.519531 12.5625 L 33.296875 12.5625 L 33.296875 16.210938 C 33.296875 17.765625 32.460938 18.546875 30.777344 18.546875 C 29.09375 18.546875 28.257812 17.765625 28.257812 16.210938 Z M 35.472656 12.5625 L 35.472656 17.878906 L 38.644531 17.878906 L 38.644531 18.5 L 34.691406 18.5 L 34.691406 12.5625 Z M 39.769531 18.5 L 38.953125 18.5 L 41.964844 11.78125 L 44.976562 18.5 L 44.109375 18.5 L 43.332031 16.632812 L 41.328125 16.632812 L 41.542969 16.011719 L 43.070312 16.011719 L 41.9375 13.324219 Z M 45.8125 18.5 L 45.8125 12.5625 L 48.398438 12.5625 C 49.554688 12.5625 50.132812 13.035156 50.132812 13.984375 C 50.132812 14.757812 49.5625 15.332031 48.4375 15.699219 L 50.515625 18.5 L 49.488281 18.5 L 47.5625 15.832031 L 47.5625 15.332031 C 48.71875 15.15625 49.304688 14.722656 49.304688 14.023438 C 49.304688 13.476562 48.988281 13.203125 48.34375 13.203125 L 46.609375 13.203125 L 46.609375 18.5 Z M 45.8125 18.5 " fill-opacity="1" fill-rule="evenodd"/></g><g clip-path="url(#42fa6a4976)"><path fill="#e23237" d="M 1.265625 10.980469 L 7.46875 8.8125 L 13.839844 10.941406 L 12.808594 18.980469 L 7.46875 21.875 L 2.21875 19.019531 Z M 1.265625 10.980469 " fill-opacity="1" fill-rule="evenodd"/></g><g clip-path="url(#7d8e00742d)"><path fill="#b52e31" d="M 13.839844 10.941406 L 7.46875 8.8125 L 7.46875 21.875 L 12.808594 18.980469 Z M 13.839844 10.941406 " fill-opacity="1" fill-rule="evenodd"/></g><path fill="#ffffff" d="M 7.480469 10.335938 L 3.613281 18.765625 L 5.054688 18.734375 L 5.835938 16.832031 L 9.289062 16.832031 L 10.136719 18.753906 L 11.511719 18.785156 Z M 7.488281 13.042969 L 8.796875 15.71875 L 6.34375 15.71875 Z M 7.488281 13.042969 " fill-opacity="1" fill-rule="evenodd"/></svg>