<svg xmlns="http://www.w3.org/2000/svg" xmlns:xlink="http://www.w3.org/1999/xlink" width="70" zoomAndPan="magnify" viewBox="0 0 52.5 30.000001" height="40" preserveAspectRatio="xMidYMid meet" version="1.0"><defs><clipPath id="0d25a3d6c6"><path d="M 11 0.402344 L 41 0.402344 L 41 17 L 11 17 Z M 11 0.402344 " clip-rule="nonzero"/></clipPath><clipPath id="967832e1c1"><path d="M 10.324219 21 L 41.535156 21 L 41.535156 28.707031 L 10.324219 28.707031 Z M 10.324219 21 " clip-rule="nonzero"/></clipPath><clipPath id="6943faf1a7"><path d="M 10.324219 19 L 41.535156 19 L 41.535156 28.707031 L 10.324219 28.707031 Z M 10.324219 19 " clip-rule="nonzero"/></clipPath></defs><g clip-path="url(#0d25a3d6c6)"><path fill="#555588" d="M 13.433594 10.835938 C 13.433594 10.316406 13.257812 9.945312 12.90625 9.726562 C 12.554688 9.503906 12.054688 9.394531 11.390625 9.394531 L 11.390625 7.472656 C 11.71875 7.472656 12.011719 7.449219 12.265625 7.402344 C 12.527344 7.347656 12.746094 7.265625 12.921875 7.152344 C 13.097656 7.035156 13.226562 6.882812 13.3125 6.703125 C 13.402344 6.519531 13.441406 6.300781 13.433594 6.042969 L 13.433594 3.488281 C 13.433594 3.089844 13.484375 2.753906 13.589844 2.472656 C 13.691406 2.179688 13.875 1.949219 14.132812 1.78125 C 14.398438 1.597656 14.757812 1.464844 15.210938 1.378906 C 15.664062 1.292969 16.238281 1.25 16.933594 1.25 L 16.933594 3.058594 C 16.71875 3.066406 16.527344 3.085938 16.351562 3.117188 C 16.179688 3.148438 16.035156 3.207031 15.910156 3.292969 C 15.792969 3.375 15.703125 3.484375 15.640625 3.628906 C 15.578125 3.773438 15.542969 3.960938 15.542969 4.191406 L 15.542969 6.597656 C 15.511719 7.601562 14.890625 8.195312 13.675781 8.382812 L 13.675781 8.480469 C 14.289062 8.570312 14.757812 8.761719 15.078125 9.058594 C 15.398438 9.351562 15.554688 9.753906 15.542969 10.257812 L 15.542969 12.660156 C 15.542969 12.890625 15.578125 13.078125 15.640625 13.222656 C 15.703125 13.367188 15.792969 13.480469 15.910156 13.5625 C 16.035156 13.648438 16.183594 13.707031 16.351562 13.738281 C 16.542969 13.769531 16.738281 13.789062 16.933594 13.792969 L 16.933594 15.609375 C 16.234375 15.609375 15.660156 15.570312 15.210938 15.484375 C 14.757812 15.394531 14.398438 15.261719 14.132812 15.082031 C 13.875 14.910156 13.691406 14.679688 13.589844 14.390625 C 13.488281 14.105469 13.433594 13.765625 13.433594 13.367188 L 13.433594 10.835938 M 17.972656 11.855469 C 17.972656 11.605469 18.011719 11.390625 18.078125 11.222656 C 18.15625 11.042969 18.253906 10.902344 18.382812 10.792969 C 18.511719 10.6875 18.652344 10.609375 18.828125 10.5625 C 19.007812 10.511719 19.191406 10.488281 19.378906 10.488281 C 19.558594 10.488281 19.734375 10.511719 19.90625 10.5625 C 20.074219 10.609375 20.226562 10.6875 20.351562 10.792969 C 20.480469 10.902344 20.582031 11.042969 20.65625 11.222656 C 20.734375 11.390625 20.769531 11.605469 20.769531 11.855469 C 20.769531 12.097656 20.730469 12.304688 20.65625 12.476562 C 20.582031 12.648438 20.480469 12.789062 20.351562 12.902344 C 20.222656 13.015625 20.074219 13.097656 19.90625 13.144531 C 19.742188 13.195312 19.566406 13.222656 19.378906 13.222656 C 19.183594 13.222656 19 13.195312 18.828125 13.144531 C 18.660156 13.097656 18.511719 13.015625 18.382812 12.902344 C 18.25 12.78125 18.148438 12.640625 18.078125 12.476562 C 18.007812 12.304688 17.972656 12.097656 17.972656 11.855469 M 22.476562 16.964844 C 22.210938 16.964844 21.949219 16.945312 21.6875 16.910156 C 21.414062 16.871094 21.1875 16.824219 21.007812 16.765625 L 21.007812 14.835938 C 21.160156 14.882812 21.3125 14.921875 21.46875 14.945312 C 21.613281 14.972656 21.777344 14.988281 21.957031 14.988281 C 22.085938 14.988281 22.210938 14.964844 22.332031 14.921875 C 22.457031 14.882812 22.5625 14.8125 22.644531 14.707031 C 22.734375 14.601562 22.804688 14.464844 22.859375 14.289062 C 22.914062 14.117188 22.9375 13.894531 22.9375 13.621094 L 22.9375 4.015625 L 25.371094 4.015625 L 25.371094 13.976562 C 25.371094 14.386719 25.320312 14.773438 25.21875 15.132812 C 25.117188 15.496094 24.945312 15.8125 24.714844 16.082031 C 24.484375 16.355469 24.1875 16.570312 23.820312 16.722656 C 23.453125 16.878906 23.007812 16.957031 22.480469 16.957031 M 22.839844 1.6875 C 22.839844 1.457031 22.878906 1.269531 22.941406 1.117188 C 23.007812 0.972656 23.097656 0.847656 23.222656 0.746094 C 23.347656 0.648438 23.488281 0.582031 23.644531 0.546875 C 23.816406 0.507812 23.988281 0.488281 24.164062 0.488281 C 24.335938 0.488281 24.507812 0.507812 24.675781 0.546875 C 24.832031 0.585938 24.972656 0.652344 25.089844 0.746094 C 25.210938 0.839844 25.308594 0.960938 25.378906 1.117188 C 25.453125 1.269531 25.488281 1.457031 25.488281 1.6875 C 25.488281 1.914062 25.453125 2.105469 25.378906 2.257812 C 25.308594 2.414062 25.210938 2.539062 25.089844 2.636719 C 24.972656 2.726562 24.835938 2.796875 24.675781 2.839844 C 24.519531 2.875 24.34375 2.894531 24.164062 2.894531 C 23.988281 2.894531 23.816406 2.875 23.644531 2.839844 C 23.492188 2.796875 23.351562 2.730469 23.222656 2.636719 C 23.105469 2.539062 23.011719 2.414062 22.945312 2.257812 C 22.875 2.105469 22.839844 1.914062 22.839844 1.6875 M 33.828125 10.335938 C 33.828125 10.808594 33.742188 11.222656 33.574219 11.574219 C 33.402344 11.929688 33.164062 12.222656 32.847656 12.457031 C 32.535156 12.695312 32.152344 12.871094 31.707031 12.988281 C 31.257812 13.105469 30.757812 13.164062 30.207031 13.164062 C 29.914062 13.164062 29.640625 13.15625 29.390625 13.132812 C 29.152344 13.121094 28.917969 13.089844 28.683594 13.046875 L 28.035156 12.886719 C 27.820312 12.820312 27.609375 12.742188 27.40625 12.648438 L 27.40625 10.613281 C 27.628906 10.726562 27.863281 10.828125 28.109375 10.917969 L 28.851562 11.160156 L 29.558594 11.316406 C 29.792969 11.355469 30.007812 11.375 30.207031 11.375 C 30.425781 11.375 30.609375 11.355469 30.765625 11.316406 C 30.902344 11.285156 31.027344 11.230469 31.140625 11.148438 C 31.234375 11.082031 31.304688 10.996094 31.355469 10.890625 C 31.402344 10.789062 31.425781 10.683594 31.425781 10.570312 C 31.425781 10.457031 31.410156 10.359375 31.371094 10.273438 C 31.339844 10.179688 31.261719 10.085938 31.140625 9.992188 C 31.019531 9.890625 30.835938 9.777344 30.597656 9.652344 L 29.648438 9.183594 L 28.632812 8.660156 C 28.351562 8.484375 28.117188 8.289062 27.933594 8.074219 C 27.75 7.859375 27.617188 7.613281 27.523438 7.34375 C 27.433594 7.070312 27.390625 6.734375 27.390625 6.351562 C 27.390625 5.933594 27.46875 5.570312 27.628906 5.253906 C 27.785156 4.9375 28.015625 4.675781 28.304688 4.472656 C 28.59375 4.265625 28.949219 4.105469 29.359375 4 C 29.773438 3.894531 30.234375 3.84375 30.742188 3.84375 C 31.273438 3.84375 31.777344 3.90625 32.257812 4.027344 C 32.734375 4.152344 33.226562 4.335938 33.734375 4.582031 L 32.996094 6.339844 C 32.617188 6.160156 32.234375 6 31.835938 5.867188 C 31.46875 5.742188 31.101562 5.679688 30.734375 5.679688 C 30.40625 5.679688 30.167969 5.738281 30.019531 5.855469 C 29.875 5.972656 29.800781 6.132812 29.800781 6.339844 C 29.800781 6.445312 29.820312 6.542969 29.859375 6.628906 C 29.894531 6.707031 29.96875 6.792969 30.082031 6.886719 C 30.191406 6.972656 30.355469 7.066406 30.546875 7.175781 L 31.339844 7.554688 L 32.359375 8.050781 C 32.664062 8.207031 32.925781 8.398438 33.136719 8.605469 C 33.351562 8.816406 33.527344 9.058594 33.640625 9.335938 C 33.753906 9.617188 33.816406 9.953125 33.816406 10.351562 M 38.160156 13.367188 C 38.160156 13.765625 38.109375 14.105469 38.003906 14.390625 C 37.898438 14.671875 37.71875 14.902344 37.453125 15.082031 C 37.191406 15.261719 36.835938 15.398438 36.382812 15.480469 C 35.933594 15.566406 35.355469 15.609375 34.660156 15.609375 L 34.660156 13.789062 C 34.855469 13.785156 35.046875 13.765625 35.234375 13.734375 C 35.40625 13.699219 35.550781 13.640625 35.667969 13.558594 C 35.792969 13.472656 35.886719 13.359375 35.945312 13.21875 C 36.015625 13.074219 36.050781 12.886719 36.050781 12.65625 L 36.050781 10.25 C 36.035156 9.746094 36.1875 9.347656 36.515625 9.054688 C 36.84375 8.757812 37.304688 8.566406 37.917969 8.472656 L 37.917969 8.378906 C 36.710938 8.191406 36.089844 7.59375 36.058594 6.59375 L 36.058594 4.1875 C 36.058594 3.957031 36.019531 3.769531 35.953125 3.625 C 35.894531 3.484375 35.800781 3.371094 35.675781 3.289062 C 35.558594 3.203125 35.414062 3.144531 35.242188 3.113281 C 35.054688 3.078125 34.863281 3.058594 34.667969 3.054688 L 34.667969 1.246094 C 35.371094 1.246094 35.941406 1.285156 36.394531 1.375 C 36.84375 1.464844 37.203125 1.59375 37.460938 1.777344 C 37.730469 1.953125 37.910156 2.183594 38.011719 2.46875 C 38.113281 2.742188 38.167969 3.085938 38.167969 3.480469 L 38.167969 6.039062 C 38.164062 6.296875 38.207031 6.515625 38.289062 6.695312 C 38.371094 6.878906 38.503906 7.03125 38.679688 7.148438 C 38.855469 7.261719 39.070312 7.34375 39.324219 7.398438 C 39.585938 7.445312 39.882812 7.46875 40.210938 7.46875 L 40.210938 9.390625 C 39.550781 9.390625 39.039062 9.5 38.6875 9.71875 C 38.335938 9.9375 38.167969 10.308594 38.167969 10.828125 L 38.167969 13.363281 " fill-opacity="1" fill-rule="nonzero"/></g><g clip-path="url(#967832e1c1)"><path fill="#000000" d="M 11.042969 28.070312 C 10.925781 28.070312 10.824219 28.0625 10.738281 28.046875 C 10.652344 28.03125 10.578125 28.011719 10.511719 27.984375 L 10.511719 27.433594 C 10.59375 27.457031 10.679688 27.472656 10.761719 27.484375 C 10.859375 27.496094 10.953125 27.503906 11.050781 27.503906 C 11.136719 27.503906 11.21875 27.492188 11.300781 27.46875 C 11.390625 27.449219 11.46875 27.410156 11.535156 27.351562 C 11.605469 27.292969 11.664062 27.214844 11.707031 27.113281 C 11.75 27.011719 11.769531 26.882812 11.769531 26.726562 L 11.769531 21.691406 L 12.410156 21.691406 L 12.410156 26.660156 C 12.410156 26.902344 12.375 27.109375 12.308594 27.285156 C 12.25 27.453125 12.15625 27.601562 12.027344 27.722656 C 11.90625 27.84375 11.761719 27.929688 11.597656 27.984375 C 11.429688 28.039062 11.203125 28.070312 11 28.070312 M 15.589844 26.203125 L 15.5625 26.203125 C 15.492188 26.300781 15.417969 26.390625 15.335938 26.472656 C 15.261719 26.546875 15.179688 26.605469 15.089844 26.65625 C 14.996094 26.707031 14.898438 26.742188 14.792969 26.761719 C 14.683594 26.785156 14.558594 26.796875 14.414062 26.796875 C 14.253906 26.796875 14.109375 26.773438 13.980469 26.730469 C 13.847656 26.6875 13.730469 26.621094 13.632812 26.523438 C 13.539062 26.429688 13.460938 26.3125 13.40625 26.171875 C 13.351562 26.03125 13.328125 25.859375 13.328125 25.671875 C 13.328125 25.292969 13.460938 25.003906 13.71875 24.800781 C 13.984375 24.601562 14.378906 24.488281 14.921875 24.472656 L 15.550781 24.445312 L 15.550781 24.210938 C 15.550781 24.054688 15.535156 23.925781 15.5 23.824219 C 15.46875 23.71875 15.421875 23.636719 15.355469 23.574219 C 15.292969 23.507812 15.214844 23.460938 15.125 23.4375 C 15.019531 23.410156 14.917969 23.394531 14.808594 23.394531 C 14.628906 23.394531 14.453125 23.421875 14.277344 23.476562 C 14.117188 23.535156 13.960938 23.601562 13.8125 23.679688 L 13.59375 23.207031 C 13.761719 23.113281 13.949219 23.035156 14.15625 22.972656 C 14.367188 22.90625 14.585938 22.875 14.808594 22.875 C 15.042969 22.875 15.242188 22.898438 15.410156 22.949219 C 15.582031 22.992188 15.722656 23.070312 15.832031 23.171875 C 15.949219 23.28125 16.03125 23.410156 16.082031 23.5625 C 16.136719 23.71875 16.160156 23.910156 16.160156 24.136719 L 16.160156 26.726562 L 15.714844 26.726562 Z M 14.578125 26.289062 C 14.710938 26.289062 14.839844 26.269531 14.964844 26.222656 C 15.082031 26.179688 15.183594 26.117188 15.273438 26.027344 C 15.359375 25.9375 15.425781 25.828125 15.472656 25.695312 C 15.523438 25.558594 15.550781 25.398438 15.550781 25.21875 L 15.550781 24.875 L 15.058594 24.902344 C 14.855469 24.910156 14.683594 24.933594 14.542969 24.96875 C 14.40625 25.007812 14.292969 25.058594 14.210938 25.125 C 14.132812 25.191406 14.066406 25.269531 14.03125 25.363281 C 13.992188 25.464844 13.972656 25.570312 13.976562 25.675781 C 13.976562 25.886719 14.03125 26.042969 14.140625 26.140625 C 14.253906 26.242188 14.398438 26.289062 14.578125 26.289062 M 16.6875 22.945312 L 17.332031 22.945312 L 18.011719 25.050781 L 18.101562 25.34375 L 18.203125 25.707031 L 18.296875 26.058594 L 18.355469 26.3125 L 18.378906 26.3125 L 18.4375 26.058594 L 18.527344 25.707031 L 18.632812 25.34375 L 18.722656 25.050781 L 19.402344 22.945312 L 20.046875 22.945312 L 18.757812 26.726562 L 17.96875 26.726562 Z M 22.585938 26.203125 L 22.558594 26.203125 C 22.488281 26.300781 22.414062 26.390625 22.332031 26.472656 C 22.179688 26.625 21.996094 26.71875 21.789062 26.761719 C 21.679688 26.785156 21.554688 26.796875 21.410156 26.796875 C 21.25 26.796875 21.105469 26.773438 20.976562 26.730469 C 20.84375 26.6875 20.726562 26.621094 20.628906 26.523438 C 20.535156 26.429688 20.457031 26.3125 20.402344 26.171875 C 20.347656 26.03125 20.324219 25.859375 20.324219 25.671875 C 20.324219 25.292969 20.457031 25.003906 20.714844 24.800781 C 20.980469 24.601562 21.375 24.488281 21.917969 24.472656 L 22.546875 24.445312 L 22.546875 24.210938 C 22.546875 24.054688 22.53125 23.925781 22.496094 23.824219 C 22.464844 23.71875 22.417969 23.636719 22.351562 23.574219 C 22.289062 23.507812 22.210938 23.460938 22.121094 23.4375 C 22.015625 23.410156 21.914062 23.394531 21.804688 23.394531 C 21.625 23.394531 21.449219 23.421875 21.273438 23.476562 C 21.113281 23.535156 20.957031 23.601562 20.808594 23.679688 L 20.589844 23.207031 C 20.757812 23.113281 20.945312 23.035156 21.152344 22.972656 C 21.367188 22.90625 21.582031 22.875 21.804688 22.875 C 22.039062 22.875 22.238281 22.898438 22.40625 22.949219 C 22.578125 22.992188 22.71875 23.070312 22.828125 23.171875 C 22.945312 23.28125 23.027344 23.410156 23.078125 23.5625 C 23.132812 23.71875 23.15625 23.910156 23.15625 24.136719 L 23.15625 26.726562 L 22.707031 26.726562 Z M 21.574219 26.289062 C 21.707031 26.292969 21.835938 26.269531 21.960938 26.226562 C 22.078125 26.183594 22.179688 26.117188 22.269531 26.03125 C 22.355469 25.9375 22.421875 25.828125 22.46875 25.695312 C 22.519531 25.558594 22.546875 25.402344 22.546875 25.21875 L 22.546875 24.878906 L 22.054688 24.902344 C 21.851562 24.910156 21.679688 24.933594 21.539062 24.972656 C 21.402344 25.007812 21.289062 25.0625 21.207031 25.128906 C 21.128906 25.191406 21.0625 25.269531 21.027344 25.363281 C 20.988281 25.464844 20.96875 25.570312 20.972656 25.679688 C 20.972656 25.890625 21.027344 26.046875 21.136719 26.144531 C 21.25 26.242188 21.394531 26.292969 21.574219 26.292969 M 26.996094 25.382812 C 26.996094 25.605469 26.957031 25.804688 26.875 25.980469 C 26.800781 26.15625 26.6875 26.304688 26.542969 26.425781 C 26.394531 26.542969 26.21875 26.640625 26.007812 26.703125 C 25.796875 26.765625 25.5625 26.796875 25.300781 26.796875 C 25.0625 26.800781 24.824219 26.777344 24.589844 26.734375 C 24.371094 26.695312 24.1875 26.636719 24.039062 26.558594 L 24.039062 25.945312 L 24.300781 26.058594 L 24.613281 26.148438 L 24.953125 26.21875 C 25.066406 26.234375 25.179688 26.242188 25.296875 26.242188 C 25.660156 26.242188 25.929688 26.175781 26.105469 26.035156 C 26.277344 25.898438 26.367188 25.703125 26.367188 25.445312 C 26.371094 25.332031 26.351562 25.222656 26.316406 25.121094 C 26.285156 25.027344 26.226562 24.945312 26.140625 24.867188 C 26.0625 24.789062 25.949219 24.710938 25.808594 24.644531 C 25.640625 24.554688 25.464844 24.476562 25.28125 24.40625 C 25.097656 24.335938 24.921875 24.25 24.753906 24.144531 C 24.605469 24.046875 24.480469 23.941406 24.382812 23.820312 C 24.289062 23.703125 24.214844 23.566406 24.167969 23.414062 C 24.121094 23.261719 24.097656 23.089844 24.097656 22.898438 C 24.097656 22.695312 24.136719 22.515625 24.207031 22.355469 C 24.28125 22.199219 24.382812 22.066406 24.515625 21.957031 C 24.65625 21.839844 24.8125 21.757812 24.988281 21.707031 C 25.171875 21.648438 25.375 21.617188 25.597656 21.617188 C 25.867188 21.617188 26.113281 21.644531 26.328125 21.699219 C 26.546875 21.75 26.738281 21.8125 26.90625 21.894531 L 26.671875 22.429688 C 26.523438 22.363281 26.355469 22.308594 26.167969 22.257812 C 25.976562 22.207031 25.78125 22.183594 25.585938 22.183594 C 25.308594 22.183594 25.089844 22.25 24.9375 22.378906 C 24.777344 22.515625 24.699219 22.691406 24.707031 22.902344 C 24.707031 23.035156 24.722656 23.148438 24.757812 23.242188 C 24.792969 23.34375 24.851562 23.429688 24.929688 23.503906 C 25.007812 23.578125 25.113281 23.652344 25.238281 23.71875 C 25.371094 23.785156 25.535156 23.859375 25.726562 23.933594 C 25.910156 24.007812 26.09375 24.089844 26.269531 24.1875 C 26.414062 24.265625 26.546875 24.367188 26.664062 24.484375 C 26.769531 24.59375 26.847656 24.722656 26.898438 24.867188 C 26.953125 25.011719 26.980469 25.191406 26.980469 25.386719 M 29.296875 26.796875 C 29.066406 26.796875 28.851562 26.757812 28.652344 26.691406 C 28.449219 26.617188 28.277344 26.503906 28.128906 26.34375 C 27.980469 26.1875 27.863281 25.984375 27.78125 25.742188 C 27.695312 25.496094 27.652344 25.203125 27.652344 24.855469 C 27.652344 24.496094 27.691406 24.191406 27.785156 23.941406 C 27.871094 23.6875 27.988281 23.484375 28.140625 23.328125 C 28.289062 23.167969 28.46875 23.054688 28.671875 22.980469 C 28.875 22.910156 29.09375 22.875 29.328125 22.875 C 29.5 22.875 29.675781 22.894531 29.847656 22.933594 C 29.996094 22.964844 30.136719 23.011719 30.273438 23.078125 L 30.089844 23.609375 C 30.035156 23.585938 29.976562 23.5625 29.914062 23.542969 C 29.851562 23.519531 29.785156 23.5 29.71875 23.484375 C 29.652344 23.464844 29.582031 23.453125 29.519531 23.441406 C 29.457031 23.433594 29.394531 23.425781 29.328125 23.425781 C 28.972656 23.425781 28.707031 23.542969 28.546875 23.773438 C 28.382812 24.003906 28.300781 24.363281 28.300781 24.847656 C 28.300781 25.332031 28.378906 25.6875 28.546875 25.914062 C 28.714844 26.136719 28.964844 26.246094 29.300781 26.246094 C 29.472656 26.25 29.636719 26.230469 29.800781 26.1875 C 29.941406 26.144531 30.078125 26.09375 30.210938 26.035156 L 30.210938 26.59375 C 30.085938 26.660156 29.953125 26.710938 29.816406 26.746094 C 29.675781 26.777344 29.496094 26.796875 29.292969 26.796875 M 32.707031 22.875 L 32.925781 22.886719 C 33 22.890625 33.070312 22.898438 33.140625 22.910156 L 33.0625 23.488281 L 32.867188 23.460938 C 32.800781 23.453125 32.738281 23.449219 32.679688 23.449219 C 32.535156 23.449219 32.40625 23.476562 32.289062 23.539062 C 32.167969 23.597656 32.066406 23.679688 31.980469 23.789062 C 31.890625 23.90625 31.828125 24.039062 31.789062 24.183594 C 31.738281 24.347656 31.71875 24.515625 31.71875 24.6875 L 31.71875 26.726562 L 31.097656 26.726562 L 31.097656 22.945312 L 31.601562 22.945312 L 31.675781 23.636719 L 31.703125 23.636719 L 31.886719 23.351562 C 31.949219 23.261719 32.023438 23.183594 32.105469 23.109375 C 32.1875 23.039062 32.277344 22.984375 32.378906 22.941406 C 32.492188 22.894531 32.609375 22.875 32.730469 22.875 M 34.453125 26.726562 L 33.828125 26.726562 L 33.828125 22.945312 L 34.453125 22.945312 L 34.453125 26.726562 M 33.882812 21.621094 C 33.957031 21.558594 34.046875 21.527344 34.144531 21.527344 C 34.191406 21.527344 34.238281 21.535156 34.285156 21.554688 C 34.328125 21.566406 34.367188 21.589844 34.398438 21.621094 C 34.4375 21.65625 34.460938 21.699219 34.480469 21.746094 C 34.5 21.792969 34.507812 21.851562 34.507812 21.921875 C 34.507812 22.054688 34.472656 22.15625 34.402344 22.222656 C 34.328125 22.285156 34.246094 22.316406 34.144531 22.316406 C 34.042969 22.316406 33.953125 22.269531 33.882812 22.203125 C 33.8125 22.140625 33.78125 22.039062 33.78125 21.914062 C 33.78125 21.785156 33.820312 21.683594 33.882812 21.621094 Z M 37.308594 26.796875 C 37.1875 26.796875 37.0625 26.785156 36.945312 26.753906 C 36.835938 26.722656 36.734375 26.683594 36.648438 26.636719 C 36.5625 26.585938 36.484375 26.527344 36.414062 26.460938 C 36.347656 26.394531 36.289062 26.324219 36.234375 26.25 L 36.195312 26.25 L 36.214844 26.472656 L 36.230469 26.660156 L 36.238281 26.808594 L 36.238281 28.421875 L 35.613281 28.421875 L 35.613281 22.945312 L 36.121094 22.945312 L 36.210938 23.453125 L 36.238281 23.453125 C 36.289062 23.375 36.347656 23.300781 36.414062 23.230469 C 36.480469 23.160156 36.558594 23.097656 36.644531 23.046875 C 36.738281 22.992188 36.835938 22.953125 36.941406 22.925781 C 37.0625 22.890625 37.183594 22.875 37.308594 22.875 C 37.523438 22.875 37.71875 22.917969 37.894531 23 C 38.070312 23.082031 38.21875 23.207031 38.34375 23.371094 C 38.46875 23.535156 38.566406 23.738281 38.632812 23.980469 C 38.703125 24.226562 38.734375 24.507812 38.734375 24.828125 C 38.734375 25.152344 38.703125 25.4375 38.632812 25.683594 C 38.566406 25.929688 38.46875 26.132812 38.34375 26.296875 C 38.21875 26.464844 38.070312 26.589844 37.894531 26.671875 C 37.71875 26.753906 37.480469 26.796875 37.265625 26.796875 M 37.191406 23.394531 C 37.015625 23.394531 36.871094 23.421875 36.75 23.476562 C 36.628906 23.527344 36.535156 23.609375 36.457031 23.714844 C 36.382812 23.824219 36.332031 23.957031 36.292969 24.121094 C 36.257812 24.308594 36.238281 24.496094 36.238281 24.6875 L 36.238281 24.828125 C 36.234375 25.039062 36.25 25.242188 36.28125 25.449219 C 36.3125 25.628906 36.363281 25.78125 36.4375 25.90625 C 36.511719 26.023438 36.609375 26.117188 36.734375 26.183594 C 36.859375 26.246094 37.011719 26.277344 37.199219 26.277344 C 37.507812 26.277344 37.730469 26.152344 37.875 25.902344 C 38.019531 25.652344 38.09375 25.289062 38.09375 24.824219 C 38.09375 24.34375 38.019531 23.988281 37.875 23.75 C 37.730469 23.515625 37.503906 23.394531 37.191406 23.394531 M 40.808594 26.285156 C 40.851562 26.285156 40.898438 26.28125 40.945312 26.277344 L 41.097656 26.257812 L 41.226562 26.234375 L 41.320312 26.210938 L 41.320312 26.6875 C 41.289062 26.699219 41.253906 26.714844 41.203125 26.726562 C 41.152344 26.742188 41.101562 26.753906 41.050781 26.761719 C 40.996094 26.773438 40.941406 26.78125 40.882812 26.785156 C 40.824219 26.792969 40.765625 26.796875 40.707031 26.796875 C 40.566406 26.796875 40.433594 26.777344 40.316406 26.742188 C 40.195312 26.707031 40.089844 26.640625 40.003906 26.550781 C 39.914062 26.460938 39.847656 26.34375 39.796875 26.191406 C 39.746094 26.035156 39.722656 25.84375 39.722656 25.613281 L 39.722656 23.414062 L 39.191406 23.414062 L 39.191406 23.136719 L 39.722656 22.867188 L 39.988281 22.074219 L 40.347656 22.074219 L 40.347656 22.941406 L 41.300781 22.941406 L 41.300781 23.414062 L 40.355469 23.414062 L 40.355469 25.609375 C 40.355469 25.832031 40.394531 26 40.460938 26.113281 C 40.53125 26.226562 40.652344 26.28125 40.816406 26.28125 " fill-opacity="1" fill-rule="nonzero"/></g><g clip-path="url(#6943faf1a7)"><path stroke-linecap="butt" transform="matrix(0.389148, 0, 0, 0.392086, 8.417759, -4.638383)" fill="none" stroke-linejoin="miter" d="M 6.746043 83.422251 C 6.444904 83.422251 6.183917 83.402325 5.963083 83.362474 C 5.742248 83.322623 5.551527 83.27281 5.380881 83.20307 L 5.380881 81.798324 C 5.591678 81.858101 5.812513 81.897952 6.02331 81.92784 C 6.274259 81.957728 6.51517 81.977654 6.766119 81.977654 C 6.986954 81.977654 7.197751 81.947765 7.408548 81.887989 C 7.63942 81.838175 7.84018 81.738548 8.010825 81.589107 C 8.191508 81.439666 8.342077 81.240411 8.452495 80.98138 C 8.562912 80.722349 8.613102 80.393578 8.613102 79.995069 L 8.613102 67.153099 L 10.259326 67.153099 L 10.259326 79.825702 C 10.259326 80.443392 10.168984 80.971417 9.998339 81.41974 C 9.84777 81.848138 9.606859 82.226722 9.275607 82.535567 C 8.96443 82.844412 8.593026 83.063592 8.171432 83.20307 C 7.7398 83.342549 7.157599 83.422251 6.635625 83.422251 M 18.430219 78.660062 L 18.359953 78.660062 C 18.17927 78.90913 17.988549 79.138273 17.777752 79.347491 C 17.587031 79.536783 17.376234 79.686224 17.145361 79.815739 C 16.90445 79.945255 16.653501 80.03492 16.382476 80.084733 C 16.101414 80.14451 15.780199 80.174398 15.408795 80.174398 C 14.997239 80.174398 14.625835 80.114622 14.294582 80.005031 C 13.953292 79.895441 13.652154 79.726075 13.401205 79.477006 C 13.160294 79.237901 12.959535 78.939018 12.819004 78.58036 C 12.678472 78.221701 12.618245 77.783341 12.618245 77.305129 C 12.618245 76.338744 12.959535 75.601501 13.62204 75.083439 C 14.30462 74.575339 15.318454 74.28642 16.713729 74.246569 L 18.329839 74.17683 L 18.329839 73.579065 C 18.329839 73.180556 18.289687 72.851785 18.199346 72.592754 C 18.119042 72.32376 17.998587 72.114543 17.827942 71.955139 C 17.667334 71.785772 17.466575 71.66622 17.235702 71.606443 C 16.964678 71.536704 16.703691 71.496853 16.422628 71.496853 C 15.960882 71.496853 15.509175 71.566592 15.057467 71.706071 C 14.645911 71.855512 14.244393 72.024878 13.862951 72.224133 L 13.300825 71.018642 C 13.732457 70.779536 14.214279 70.580281 14.74629 70.420877 C 15.28834 70.251511 15.850465 70.171809 16.422628 70.171809 C 17.024905 70.171809 17.536841 70.231585 17.968473 70.361101 C 18.410143 70.470691 18.771509 70.669946 19.052572 70.928977 C 19.35371 71.207934 19.564507 71.536704 19.695001 71.925251 C 19.835532 72.32376 19.89576 72.811934 19.89576 73.389773 L 19.89576 79.995069 L 18.751433 79.995069 Z M 15.830389 78.879242 C 16.171679 78.879242 16.502932 78.829428 16.824146 78.709876 C 17.125285 78.600285 17.386272 78.440882 17.617145 78.211739 C 17.837979 77.982596 18.008625 77.703639 18.12908 77.364906 C 18.259573 77.01621 18.329839 76.607738 18.329839 76.149452 L 18.329839 75.272731 L 17.065057 75.34247 C 16.543084 75.362395 16.101414 75.422172 15.740048 75.511837 C 15.388719 75.611464 15.097619 75.74098 14.886822 75.910346 C 14.686063 76.079713 14.515417 76.278967 14.425076 76.518073 C 14.324696 76.777104 14.274507 77.046098 14.284545 77.315092 C 14.284545 77.85308 14.425076 78.25159 14.706139 78.500658 C 14.997239 78.759689 15.368643 78.879242 15.830389 78.879242 M 21.250883 70.351138 L 22.907145 70.351138 L 24.653749 75.721054 L 24.884622 76.468259 L 25.145608 77.394794 L 25.386519 78.29144 L 25.537088 78.939018 L 25.597316 78.939018 L 25.747885 78.29144 L 25.978758 77.394794 L 26.249783 76.468259 L 26.480656 75.721054 L 28.22726 70.351138 L 29.883522 70.351138 L 26.570997 79.995069 L 24.543331 79.995069 Z M 36.40819 78.660062 L 36.337925 78.660062 C 36.157241 78.90913 35.96652 79.138273 35.755723 79.347491 C 35.364243 79.736038 34.89246 79.975143 34.360448 80.084733 C 34.079385 80.14451 33.758171 80.174398 33.386767 80.174398 C 32.975211 80.174398 32.603807 80.114622 32.272554 80.005031 C 31.931264 79.895441 31.630125 79.726075 31.379176 79.477006 C 31.138266 79.237901 30.937507 78.939018 30.796975 78.58036 C 30.656444 78.221701 30.596216 77.783341 30.596216 77.305129 C 30.596216 76.338744 30.937507 75.601501 31.600011 75.083439 C 32.282592 74.575339 33.296425 74.28642 34.6917 74.246569 L 36.307811 74.17683 L 36.307811 73.579065 C 36.307811 73.180556 36.267659 72.851785 36.177317 72.592754 C 36.097014 72.32376 35.976558 72.114543 35.805913 71.955139 C 35.645306 71.785772 35.444547 71.66622 35.213674 71.606443 C 34.942649 71.536704 34.681663 71.496853 34.4006 71.496853 C 33.938854 71.496853 33.487146 71.566592 33.035438 71.706071 C 32.623882 71.855512 32.222364 72.024878 31.840922 72.224133 L 31.278797 71.018642 C 31.710429 70.779536 32.19225 70.580281 32.724262 70.420877 C 33.276349 70.251511 33.828437 70.171809 34.4006 70.171809 C 35.002877 70.171809 35.514813 70.231585 35.946444 70.361101 C 36.388114 70.470691 36.749481 70.669946 37.030543 70.928977 C 37.331682 71.207934 37.542479 71.536704 37.672972 71.925251 C 37.813503 72.32376 37.873731 72.811934 37.873731 73.389773 L 37.873731 79.995069 L 36.719367 79.995069 Z M 33.808361 78.879242 C 34.149651 78.889205 34.480903 78.829428 34.802118 78.719838 C 35.103256 78.610248 35.364243 78.440882 35.595116 78.221701 C 35.815951 77.982596 35.986596 77.703639 36.107052 77.364906 C 36.237545 77.01621 36.307811 76.6177 36.307811 76.149452 L 36.307811 75.282694 L 35.043029 75.34247 C 34.521055 75.362395 34.079385 75.422172 33.718019 75.521799 C 33.366691 75.611464 33.07559 75.750942 32.864793 75.920309 C 32.664034 76.079713 32.493389 76.278967 32.403047 76.518073 C 32.302668 76.777104 32.252478 77.046098 32.262516 77.325055 C 32.262516 77.863043 32.403047 78.261552 32.68411 78.510621 C 32.975211 78.759689 33.346615 78.889205 33.808361 78.889205 M 47.741038 76.567887 C 47.741038 77.135763 47.640658 77.643863 47.429861 78.092186 C 47.23914 78.540509 46.94804 78.919093 46.576635 79.227938 C 46.195193 79.52682 45.743485 79.775888 45.201436 79.935292 C 44.659387 80.094696 44.057109 80.174398 43.384567 80.174398 C 42.772252 80.184361 42.159937 80.124584 41.557659 80.014994 C 40.995534 79.915367 40.52375 79.765926 40.142308 79.566671 L 40.142308 78.002521 L 40.814851 78.29144 L 41.617887 78.520583 L 42.491189 78.699913 C 42.78229 78.739764 43.07339 78.759689 43.374529 78.759689 C 44.308058 78.759689 45.000677 78.590323 45.452385 78.231664 C 45.894055 77.882968 46.124928 77.384831 46.124928 76.727291 C 46.134965 76.438371 46.084776 76.159415 45.994434 75.900383 C 45.914131 75.661278 45.763561 75.45206 45.542726 75.252805 C 45.341967 75.053551 45.050867 74.854296 44.6895 74.684929 C 44.257868 74.455786 43.806161 74.256532 43.334377 74.077202 C 42.862593 73.897873 42.410885 73.678693 41.979253 73.409699 C 41.597811 73.16063 41.276597 72.891636 41.025648 72.582792 C 40.784737 72.283909 40.594016 71.935214 40.473561 71.546667 C 40.353105 71.15812 40.292878 70.719759 40.292878 70.231585 C 40.292878 69.713523 40.393257 69.255237 40.57394 68.846765 C 40.764661 68.448255 41.025648 68.109522 41.366938 67.830565 C 41.728305 67.531683 42.129823 67.322466 42.581531 67.19295 C 43.053314 67.043509 43.575288 66.963807 44.147451 66.963807 C 44.84007 66.963807 45.472461 67.033546 46.024548 67.173025 C 46.586673 67.30254 47.078533 67.461944 47.510165 67.671162 L 46.907888 69.036057 C 46.526446 68.86669 46.094814 68.727212 45.612992 68.597696 C 45.121132 68.468181 44.619235 68.408404 44.117337 68.408404 C 43.404643 68.408404 42.842517 68.577771 42.451037 68.906541 C 42.039481 69.255237 41.838722 69.70356 41.858798 70.241548 C 41.858798 70.580281 41.89895 70.869201 41.989291 71.108306 C 42.079633 71.367337 42.230202 71.586518 42.430961 71.77581 C 42.63172 71.965102 42.902745 72.154394 43.223959 72.32376 C 43.56525 72.493127 43.986844 72.682419 44.478703 72.871711 C 44.950487 73.061003 45.422271 73.27022 45.873979 73.519289 C 46.245383 73.718544 46.586673 73.977575 46.887812 74.276457 C 47.158837 74.555414 47.359596 74.884184 47.490089 75.252805 C 47.63062 75.621427 47.700886 76.079713 47.700886 76.57785 M 53.653391 80.174398 C 53.061152 80.174398 52.509065 80.074771 51.997129 79.905404 C 51.475156 79.716112 51.033486 79.427193 50.652044 79.01872 C 50.270602 78.620211 49.969463 78.102148 49.758666 77.484459 C 49.537831 76.856806 49.427414 76.109601 49.427414 75.222917 C 49.427414 74.306345 49.527793 73.529252 49.768704 72.891636 C 49.989539 72.244058 50.290678 71.725996 50.682158 71.327487 C 51.0636 70.919014 51.525346 70.630095 52.047319 70.440803 C 52.569293 70.261474 53.131418 70.171809 53.733695 70.171809 C 54.175365 70.171809 54.627073 70.221623 55.068743 70.32125 C 55.450185 70.400952 55.811551 70.520505 56.162879 70.689871 L 55.691096 72.044804 C 55.550564 71.985027 55.399995 71.925251 55.239388 71.875437 C 55.07878 71.815661 54.908135 71.765847 54.73749 71.725996 C 54.566845 71.676182 54.386162 71.646294 54.225555 71.616406 C 54.064947 71.59648 53.90434 71.576555 53.733695 71.576555 C 52.820241 71.576555 52.137661 71.875437 51.726105 72.463239 C 51.304511 73.05104 51.093714 73.967612 51.093714 75.202992 C 51.093714 76.438371 51.294473 77.34498 51.726105 77.922819 C 52.157737 78.490695 52.800165 78.769652 53.663429 78.769652 C 54.105099 78.779615 54.526693 78.729801 54.948287 78.620211 C 55.309653 78.510621 55.660982 78.381105 56.002272 78.231664 L 56.002272 79.656336 C 55.681058 79.825702 55.339767 79.955218 54.988439 80.044882 C 54.627073 80.124584 54.165327 80.174398 53.643353 80.174398 M 62.416523 70.171809 L 62.978649 70.201697 C 63.16937 70.21166 63.350053 70.231585 63.530736 70.261474 L 63.329977 71.735959 L 62.828079 71.66622 C 62.657434 71.646294 62.496827 71.636331 62.346258 71.636331 C 61.974853 71.636331 61.643601 71.706071 61.342462 71.865474 C 61.031286 72.014915 60.770299 72.224133 60.549464 72.50309 C 60.318591 72.801972 60.157984 73.140705 60.057605 73.509326 C 59.927111 73.927761 59.876921 74.356159 59.876921 74.794519 L 59.876921 79.995069 L 58.280887 79.995069 L 58.280887 70.351138 L 59.575783 70.351138 L 59.766504 72.114543 L 59.83677 72.114543 L 60.308553 71.387263 C 60.469161 71.15812 60.659882 70.958865 60.870679 70.769573 C 61.081476 70.590244 61.312349 70.450766 61.573335 70.341175 C 61.864436 70.221623 62.165574 70.171809 62.476751 70.171809 M 66.903488 79.995069 L 65.297415 79.995069 L 65.297415 70.351138 L 66.903488 70.351138 L 66.903488 79.995069 M 65.437947 66.97377 C 65.628668 66.814366 65.859541 66.734664 66.110489 66.734664 C 66.230945 66.734664 66.3514 66.75459 66.471856 66.804403 C 66.582273 66.834292 66.682653 66.894068 66.762956 66.97377 C 66.863336 67.063435 66.923564 67.173025 66.973753 67.292578 C 67.023943 67.41213 67.044019 67.561571 67.044019 67.740901 C 67.044019 68.079634 66.953677 68.338665 66.772994 68.508032 C 66.582273 68.667435 66.371476 68.747137 66.110489 68.747137 C 65.849503 68.747137 65.61863 68.627584 65.437947 68.458218 C 65.257264 68.298814 65.17696 68.039783 65.17696 67.720975 C 65.17696 67.392205 65.277339 67.133174 65.437947 66.97377 Z M 74.24123 80.174398 C 73.930054 80.174398 73.608839 80.14451 73.307701 80.064808 C 73.026638 79.985106 72.765651 79.885479 72.544817 79.765926 C 72.323982 79.63641 72.123223 79.486969 71.942539 79.317603 C 71.771894 79.148236 71.621325 78.968907 71.480794 78.779615 L 71.380414 78.779615 L 71.430604 79.347491 L 71.470756 79.825702 L 71.490832 80.204286 L 71.490832 84.318897 L 69.884759 84.318897 L 69.884759 70.351138 L 71.189693 70.351138 L 71.420566 71.646294 L 71.490832 71.646294 C 71.621325 71.447039 71.771894 71.257747 71.942539 71.078418 C 72.113185 70.899089 72.313944 70.739685 72.534779 70.610169 C 72.775689 70.470691 73.026638 70.371064 73.297663 70.301324 C 73.608839 70.21166 73.920016 70.171809 74.24123 70.171809 C 74.793318 70.171809 75.295215 70.281399 75.746923 70.490617 C 76.198631 70.699834 76.580073 71.018642 76.901288 71.437077 C 77.222502 71.855512 77.473451 72.373574 77.644096 72.991264 C 77.824779 73.618916 77.905083 74.336233 77.905083 75.153178 C 77.905083 75.980085 77.824779 76.707365 77.644096 77.335018 C 77.473451 77.96267 77.222502 78.480733 76.901288 78.899168 C 76.580073 79.327565 76.198631 79.646373 75.746923 79.85559 C 75.295215 80.064808 74.6829 80.174398 74.130813 80.174398 M 73.940092 71.496853 C 73.488384 71.496853 73.11698 71.566592 72.805803 71.706071 C 72.494627 71.835586 72.253716 72.044804 72.052957 72.313798 C 71.862236 72.592754 71.731742 72.931487 71.631363 73.349922 C 71.541021 73.828134 71.490832 74.306345 71.490832 74.794519 L 71.490832 75.153178 C 71.480794 75.691166 71.520945 76.209228 71.601249 76.737253 C 71.681553 77.195539 71.812046 77.584086 72.002767 77.902894 C 72.193488 78.201776 72.444437 78.440882 72.765651 78.610248 C 73.086866 78.769652 73.478346 78.849354 73.960168 78.849354 C 74.753166 78.849354 75.325329 78.530546 75.696733 77.892931 C 76.068138 77.255316 76.258859 76.328781 76.258859 75.143215 C 76.258859 73.917798 76.068138 73.011189 75.696733 72.403462 C 75.325329 71.805698 74.743128 71.496853 73.940092 71.496853 M 83.235235 78.869279 C 83.345653 78.869279 83.466108 78.859317 83.586563 78.849354 L 83.978044 78.79954 L 84.309296 78.739764 L 84.550207 78.679987 L 84.550207 79.895441 C 84.469903 79.92533 84.379562 79.965181 84.249068 79.995069 C 84.118575 80.03492 83.988082 80.064808 83.857588 80.084733 C 83.717057 80.114622 83.576526 80.134547 83.425956 80.14451 C 83.275387 80.164435 83.124818 80.174398 82.974248 80.174398 C 82.612882 80.174398 82.271592 80.124584 81.970453 80.03492 C 81.659277 79.945255 81.388252 79.775888 81.167417 79.546746 C 80.936544 79.317603 80.765899 79.01872 80.635406 78.630174 C 80.504912 78.231664 80.444685 77.74349 80.444685 77.155688 L 80.444685 71.546667 L 79.079523 71.546667 L 79.079523 70.839312 L 80.444685 70.151883 L 81.127265 68.129448 L 82.050757 68.129448 L 82.050757 70.341175 L 84.500017 70.341175 L 84.500017 71.546667 L 82.070833 71.546667 L 82.070833 77.145726 C 82.070833 77.713602 82.171212 78.141999 82.341857 78.430919 C 82.522541 78.719838 82.833717 78.859317 83.255311 78.859317 " stroke="#000000" stroke-width="1" stroke-opacity="1" stroke-miterlimit="4"/></g></svg>