<svg xmlns="http://www.w3.org/2000/svg" xmlns:xlink="http://www.w3.org/1999/xlink" width="70" zoomAndPan="magnify" viewBox="0 0 52.5 30.000001" height="40" preserveAspectRatio="xMidYMid meet" version="1.0"><defs><g/><clipPath id="b00169d25e"><path d="M 3.507812 6 L 20.925781 6 L 20.925781 23 L 3.507812 23 Z M 3.507812 6 " clip-rule="nonzero"/></clipPath><clipPath id="a2bc80a902"><path d="M 20 9 L 51.410156 9 L 51.410156 19 L 20 19 Z M 20 9 " clip-rule="nonzero"/></clipPath><clipPath id="a51590a8ca"><rect x="0" width="32" y="0" height="10"/></clipPath></defs><path fill="#f36933" d="M 16.867188 10.378906 C 16.839844 10.398438 16.824219 10.425781 16.824219 10.460938 C 16.824219 10.46875 16.828125 10.480469 16.832031 10.488281 C 16.847656 10.523438 16.859375 10.566406 16.859375 10.613281 C 16.859375 10.683594 16.835938 10.746094 16.792969 10.796875 C 16.78125 10.8125 16.773438 10.832031 16.773438 10.855469 C 16.773438 10.882812 16.789062 10.910156 16.808594 10.929688 C 16.824219 10.941406 16.84375 10.949219 16.867188 10.949219 C 16.894531 10.949219 16.921875 10.9375 16.9375 10.917969 C 17.007812 10.835938 17.046875 10.730469 17.046875 10.613281 C 17.046875 10.539062 17.03125 10.464844 17 10.402344 C 16.980469 10.378906 16.953125 10.363281 16.921875 10.363281 C 16.902344 10.363281 16.882812 10.371094 16.867188 10.378906 Z M 16.867188 10.378906 " fill-opacity="1" fill-rule="nonzero"/><path fill="#f36933" d="M 17 10.402344 L 16.996094 10.398438 Z M 17 10.402344 " fill-opacity="1" fill-rule="nonzero"/><g clip-path="url(#b00169d25e)"><path fill="#f36933" d="M 13.226562 6.316406 C 8.738281 5.738281 4.628906 8.914062 4.054688 13.402344 C 3.476562 17.890625 6.648438 22 11.140625 22.574219 C 15.628906 23.152344 19.738281 19.980469 20.3125 15.488281 C 20.890625 11 17.71875 6.890625 13.226562 6.316406 Z M 14.914062 11.429688 C 14.757812 11.429688 14.613281 11.496094 14.507812 11.601562 L 11.46875 14.640625 L 10.820312 13.992188 C 13.816406 11.003906 14.359375 10.976562 14.914062 11.429688 Z M 11.59375 14.75 L 14.625 11.714844 C 14.703125 11.636719 14.8125 11.585938 14.933594 11.585938 C 15.167969 11.585938 15.355469 11.777344 15.355469 12.007812 C 15.355469 12.140625 15.296875 12.253906 15.203125 12.332031 L 11.996094 15.152344 Z M 11.816406 15.222656 L 11.066406 15.386719 C 11.0625 15.386719 11.0625 15.386719 11.058594 15.386719 C 11.042969 15.386719 11.027344 15.378906 11.019531 15.363281 C 11.015625 15.359375 11.015625 15.351562 11.015625 15.34375 C 11.015625 15.332031 11.019531 15.320312 11.027344 15.316406 L 11.46875 14.875 Z M 9.902344 14.910156 L 10.703125 14.109375 L 11.304688 14.710938 L 9.953125 15 C 9.949219 15 9.945312 15 9.941406 15 C 9.917969 15 9.902344 14.988281 9.894531 14.972656 C 9.890625 14.964844 9.886719 14.957031 9.886719 14.945312 C 9.886719 14.933594 9.894531 14.917969 9.902344 14.910156 Z M 7.414062 19.046875 C 7.386719 19.046875 7.367188 19.023438 7.367188 18.996094 C 7.367188 18.996094 7.367188 18.992188 7.367188 18.992188 C 7.367188 18.980469 7.371094 18.96875 7.378906 18.960938 L 7.382812 18.960938 L 8.027344 18.3125 L 8.863281 19.148438 Z M 9.070312 18.191406 C 9.019531 18.21875 8.984375 18.269531 8.984375 18.328125 C 8.984375 18.34375 8.988281 18.355469 8.988281 18.367188 L 9.128906 18.957031 C 9.128906 18.960938 9.132812 18.96875 9.132812 18.976562 C 9.132812 19.023438 9.09375 19.0625 9.046875 19.0625 C 9.023438 19.0625 9 19.050781 8.984375 19.035156 L 8.144531 18.195312 L 10.714844 15.628906 L 11.957031 15.359375 L 12.554688 15.957031 C 11.695312 16.710938 10.523438 17.460938 9.070312 18.191406 Z M 12.675781 15.847656 L 12.101562 15.277344 L 15.3125 12.457031 C 15.339844 12.429688 15.367188 12.402344 15.390625 12.371094 C 15.292969 13.289062 14.007812 14.585938 12.675781 15.847656 Z M 16.050781 11.800781 C 15.707031 11.800781 15.398438 11.660156 15.171875 11.4375 L 15.175781 11.4375 L 15.171875 11.433594 C 14.949219 11.210938 14.808594 10.898438 14.808594 10.558594 C 14.808594 9.871094 15.367188 9.3125 16.054688 9.3125 C 16.359375 9.3125 16.636719 9.421875 16.851562 9.601562 L 15.75 10.703125 C 15.738281 10.71875 15.726562 10.738281 15.726562 10.761719 C 15.726562 10.785156 15.738281 10.804688 15.75 10.820312 L 16.601562 11.671875 C 16.441406 11.75 16.253906 11.800781 16.050781 11.800781 Z M 16.933594 11.4375 C 16.878906 11.492188 16.820312 11.539062 16.753906 11.582031 L 16.75 11.585938 L 15.925781 10.761719 L 16.972656 9.714844 C 17.421875 10.203125 17.40625 10.964844 16.933594 11.4375 Z M 16.933594 11.4375 " fill-opacity="1" fill-rule="nonzero"/></g><g clip-path="url(#a2bc80a902)"><g transform="matrix(1, 0, 0, 1, 20, 9)"><g clip-path="url(#a51590a8ca)"><g fill="#f36933" fill-opacity="1"><g transform="translate(0.743923, 7.047498)"><g><path d="M 2.125 -4.15625 C 2.40625 -4.15625 2.644531 -4.101562 2.84375 -4 C 3.050781 -3.90625 3.207031 -3.757812 3.3125 -3.5625 C 3.425781 -3.375 3.484375 -3.148438 3.484375 -2.890625 C 3.484375 -2.628906 3.425781 -2.40625 3.3125 -2.21875 C 3.207031 -2.03125 3.050781 -1.882812 2.84375 -1.78125 C 2.644531 -1.675781 2.40625 -1.625 2.125 -1.625 L 1.125 -1.625 L 1.125 0 L 0.625 0 L 0.625 -4.15625 Z M 2.109375 -2.046875 C 2.679688 -2.046875 2.96875 -2.328125 2.96875 -2.890625 C 2.96875 -3.460938 2.679688 -3.75 2.109375 -3.75 L 1.125 -3.75 L 1.125 -2.046875 Z M 2.109375 -2.046875 "/></g></g></g><g fill="#f36933" fill-opacity="1"><g transform="translate(4.53326, 7.047498)"><g><path d="M 2.28125 0.0625 C 1.914062 0.0625 1.59375 -0.015625 1.3125 -0.171875 C 1.039062 -0.328125 0.820312 -0.5625 0.65625 -0.875 C 0.5 -1.195312 0.421875 -1.597656 0.421875 -2.078125 C 0.421875 -2.554688 0.5 -2.953125 0.65625 -3.265625 C 0.820312 -3.585938 1.039062 -3.828125 1.3125 -3.984375 C 1.59375 -4.140625 1.914062 -4.21875 2.28125 -4.21875 C 2.644531 -4.21875 2.96875 -4.140625 3.25 -3.984375 C 3.53125 -3.828125 3.75 -3.585938 3.90625 -3.265625 C 4.070312 -2.953125 4.15625 -2.554688 4.15625 -2.078125 C 4.15625 -1.597656 4.070312 -1.195312 3.90625 -0.875 C 3.75 -0.5625 3.53125 -0.328125 3.25 -0.171875 C 2.96875 -0.015625 2.644531 0.0625 2.28125 0.0625 Z M 2.28125 -0.390625 C 2.71875 -0.390625 3.050781 -0.523438 3.28125 -0.796875 C 3.507812 -1.066406 3.625 -1.492188 3.625 -2.078125 C 3.625 -2.660156 3.507812 -3.085938 3.28125 -3.359375 C 3.050781 -3.628906 2.71875 -3.765625 2.28125 -3.765625 C 1.382812 -3.765625 0.9375 -3.203125 0.9375 -2.078125 C 0.9375 -0.953125 1.382812 -0.390625 2.28125 -0.390625 Z M 2.28125 -0.390625 "/></g></g></g><g fill="#f36933" fill-opacity="1"><g transform="translate(9.092972, 7.047498)"><g><path d="M 1.8125 0.0625 C 1.550781 0.0625 1.316406 0.0234375 1.109375 -0.046875 C 0.898438 -0.117188 0.726562 -0.210938 0.59375 -0.328125 C 0.457031 -0.441406 0.351562 -0.566406 0.28125 -0.703125 L 0.546875 -1.03125 L 0.625 -1.03125 C 0.882812 -0.59375 1.28125 -0.375 1.8125 -0.375 C 2.125 -0.375 2.359375 -0.441406 2.515625 -0.578125 C 2.671875 -0.710938 2.75 -0.894531 2.75 -1.125 C 2.75 -1.257812 2.722656 -1.375 2.671875 -1.46875 C 2.617188 -1.5625 2.535156 -1.640625 2.421875 -1.703125 C 2.304688 -1.773438 2.148438 -1.835938 1.953125 -1.890625 L 1.46875 -2.015625 C 1.101562 -2.097656 0.832031 -2.234375 0.65625 -2.421875 C 0.488281 -2.617188 0.40625 -2.863281 0.40625 -3.15625 C 0.40625 -3.351562 0.457031 -3.535156 0.5625 -3.703125 C 0.664062 -3.867188 0.820312 -3.992188 1.03125 -4.078125 C 1.238281 -4.171875 1.484375 -4.21875 1.765625 -4.21875 C 2.078125 -4.21875 2.335938 -4.171875 2.546875 -4.078125 C 2.765625 -3.992188 2.941406 -3.863281 3.078125 -3.6875 L 2.828125 -3.375 L 2.765625 -3.375 C 2.640625 -3.519531 2.492188 -3.625 2.328125 -3.6875 C 2.171875 -3.757812 1.984375 -3.796875 1.765625 -3.796875 C 1.472656 -3.796875 1.253906 -3.738281 1.109375 -3.625 C 0.960938 -3.507812 0.890625 -3.351562 0.890625 -3.15625 C 0.890625 -2.96875 0.941406 -2.816406 1.046875 -2.703125 C 1.160156 -2.597656 1.34375 -2.515625 1.59375 -2.453125 L 2.09375 -2.34375 C 2.5 -2.238281 2.789062 -2.085938 2.96875 -1.890625 C 3.15625 -1.703125 3.25 -1.453125 3.25 -1.140625 C 3.25 -0.910156 3.195312 -0.703125 3.09375 -0.515625 C 2.988281 -0.335938 2.828125 -0.195312 2.609375 -0.09375 C 2.390625 0.0078125 2.125 0.0625 1.8125 0.0625 Z M 1.8125 0.0625 "/></g></g></g><g fill="#f36933" fill-opacity="1"><g transform="translate(12.606499, 7.047498)"><g><path d="M 3.25 -4.15625 L 3.25 -3.75 L 1.9375 -3.75 L 1.9375 0 L 1.453125 0 L 1.453125 -3.75 L 0.15625 -3.75 L 0.15625 -4.15625 Z M 3.25 -4.15625 "/></g></g></g><g fill="#f36933" fill-opacity="1"><g transform="translate(16.000699, 7.047498)"><g><path d="M 1.078125 0 L 0.625 0 L 0.625 -4.15625 L 1.359375 -4.15625 L 2.609375 -0.640625 L 2.671875 -0.640625 L 3.9375 -4.15625 L 4.640625 -4.15625 L 4.640625 0 L 4.171875 0 L 4.171875 -3.390625 L 4.09375 -3.40625 L 2.875 0 L 2.390625 0 L 1.15625 -3.40625 L 1.078125 -3.390625 Z M 1.078125 0 "/></g></g></g><g fill="#f36933" fill-opacity="1"><g transform="translate(21.262562, 7.047498)"><g><path d="M 3.75 0 L 3.21875 0 L 2.84375 -1.140625 L 1.0625 -1.140625 L 0.671875 0 L 0.171875 0 L 1.609375 -4.15625 L 2.296875 -4.15625 Z M 1.921875 -3.65625 L 1.203125 -1.546875 L 2.703125 -1.546875 L 1.984375 -3.65625 Z M 1.921875 -3.65625 "/></g></g></g><g fill="#f36933" fill-opacity="1"><g transform="translate(25.168451, 7.047498)"><g><path d="M 1.109375 0 L 0.625 0 L 0.625 -4.15625 L 1.234375 -4.15625 L 3.265625 -0.984375 L 3.328125 -1 L 3.328125 -4.15625 L 3.8125 -4.15625 L 3.8125 0 L 3.296875 0 L 1.171875 -3.40625 L 1.109375 -3.390625 Z M 1.109375 0 "/></g></g></g></g></g></g></svg>