<svg xmlns="http://www.w3.org/2000/svg" xmlns:xlink="http://www.w3.org/1999/xlink" width="70" zoomAndPan="magnify" viewBox="0 0 52.5 30.000001" height="40" preserveAspectRatio="xMidYMid meet" version="1.0"><defs><clipPath id="6218656b20"><path d="M 1.332031 6 L 25 6 L 25 23 L 1.332031 23 Z M 1.332031 6 " clip-rule="nonzero"/></clipPath><clipPath id="2c5ab29c06"><path d="M 1.332031 5.902344 L 21 5.902344 L 21 23.320312 L 1.332031 23.320312 Z M 1.332031 5.902344 " clip-rule="nonzero"/></clipPath><clipPath id="95b88af956"><path d="M 23 11 L 50.683594 11 L 50.683594 20 L 23 20 Z M 23 11 " clip-rule="nonzero"/></clipPath></defs><path fill="#00d8ff" d="M 12.476562 14.597656 C 12.476562 14.816406 12.433594 15.03125 12.351562 15.234375 C 12.265625 15.441406 12.148438 15.621094 11.992188 15.777344 C 11.835938 15.933594 11.660156 16.054688 11.457031 16.140625 C 11.253906 16.226562 11.042969 16.269531 10.824219 16.269531 C 10.605469 16.269531 10.394531 16.226562 10.191406 16.140625 C 9.988281 16.054688 9.808594 15.933594 9.652344 15.777344 C 9.5 15.621094 9.378906 15.441406 9.296875 15.234375 C 9.210938 15.03125 9.167969 14.816406 9.167969 14.597656 C 9.167969 14.375 9.210938 14.160156 9.296875 13.957031 C 9.378906 13.75 9.5 13.570312 9.652344 13.414062 C 9.808594 13.257812 9.988281 13.136719 10.191406 13.050781 C 10.394531 12.964844 10.605469 12.921875 10.824219 12.921875 C 11.042969 12.921875 11.253906 12.964844 11.457031 13.050781 C 11.660156 13.136719 11.835938 13.257812 11.992188 13.414062 C 12.148438 13.570312 12.265625 13.75 12.351562 13.957031 C 12.433594 14.160156 12.476562 14.375 12.476562 14.597656 Z M 12.476562 14.597656 " fill-opacity="1" fill-rule="nonzero"/><g clip-path="url(#6218656b20)"><path stroke-linecap="butt" transform="matrix(0.0329684, 0, 0, 0.0333374, 1.937227, 6.67379)" fill="none" stroke-linejoin="miter" d="M 269.560827 135.629214 C 336.860103 135.629214 399.419993 145.237424 446.695365 161.524511 C 503.449508 181.09245 538.402477 210.737292 538.402477 237.687148 C 538.402477 265.574391 501.435269 297.094005 440.297195 317.364984 C 394.206669 332.597512 333.424048 340.682468 269.560827 340.682468 C 203.920336 340.682468 141.952869 333.183378 95.26992 317.247811 C 36.146084 296.976832 0.600692 265.105698 0.600692 237.687148 C 0.600692 210.971639 34.013361 181.561143 90.056596 161.993204 C 137.331968 145.47177 201.550643 135.629214 269.560827 135.629214 Z M 269.560827 135.629214 " stroke="#00d8ff" stroke-width="24" stroke-opacity="1" stroke-miterlimit="4"/></g><g clip-path="url(#2c5ab29c06)"><path stroke-linecap="butt" transform="matrix(0.0329684, 0, 0, 0.0333374, 1.937227, 6.67379)" fill="none" stroke-linejoin="miter" d="M 180.697346 186.951114 C 214.346984 128.598817 254.039339 79.151689 291.717455 46.460342 C 336.978588 6.972944 380.106997 -8.49393 403.448471 4.980998 C 427.619338 18.924619 436.505686 66.731321 423.472376 129.77055 C 413.63815 177.342905 390.296676 233.937603 358.305823 289.360568 C 325.604062 346.07244 288.044431 396.105434 250.958738 428.562435 C 203.920336 469.690259 158.540718 484.571266 134.725306 470.861992 C 111.739285 457.504237 102.852937 413.915774 113.872009 355.563476 C 123.232295 306.350695 146.810739 245.889278 180.697346 186.951114 Z M 180.697346 186.951114 " stroke="#00d8ff" stroke-width="24" stroke-opacity="1" stroke-miterlimit="4"/><path stroke-linecap="butt" transform="matrix(0.0329684, 0, 0, 0.0333374, 1.937227, 6.67379)" fill="none" stroke-linejoin="miter" d="M 180.815831 289.477742 C 147.047708 231.242617 124.061688 172.18728 114.464432 123.208846 C 102.971422 64.270682 111.146862 19.158966 134.369852 5.684038 C 158.540718 -8.376757 204.394275 7.91033 252.499039 50.561407 C 288.873823 82.901235 326.196485 131.410976 358.187338 186.716768 C 391.126069 243.545813 415.652389 300.960724 425.249645 349.353292 C 437.335079 410.517748 427.619338 457.387063 403.803925 471.096338 C 380.817905 484.454093 338.518888 470.276125 293.613209 431.60894 C 255.579639 398.917593 214.939408 348.298732 180.815831 289.477742 Z M 180.815831 289.477742 " stroke="#00d8ff" stroke-width="24" stroke-opacity="1" stroke-miterlimit="4"/></g><g clip-path="url(#95b88af956)"><path fill="#00d8ff" d="M 29.183594 18.867188 L 27.15625 15.773438 C 28.179688 15.679688 29.101562 14.929688 29.101562 13.558594 C 29.101562 12.164062 28.125 11.269531 26.75 11.269531 L 23.734375 11.269531 L 23.734375 18.863281 L 24.667969 18.863281 L 24.667969 15.847656 L 26.164062 15.847656 L 28.078125 18.863281 Z M 26.636719 15.019531 L 24.667969 15.019531 L 24.667969 12.117188 L 26.636719 12.117188 C 27.527344 12.117188 28.136719 12.710938 28.136719 13.5625 C 28.136719 14.417969 27.527344 15.023438 26.636719 15.023438 Z M 32.660156 19.003906 C 33.550781 19.003906 34.28125 18.710938 34.824219 18.164062 L 34.417969 17.605469 C 33.988281 18.046875 33.359375 18.300781 32.738281 18.300781 C 31.570312 18.300781 30.847656 17.433594 30.78125 16.398438 L 35.183594 16.398438 L 35.183594 16.183594 C 35.183594 14.53125 34.214844 13.234375 32.570312 13.234375 C 31.015625 13.234375 29.890625 14.519531 29.890625 16.113281 C 29.890625 17.832031 31.050781 19 32.660156 19 Z M 34.351562 15.769531 L 30.78125 15.769531 C 30.828125 14.929688 31.398438 13.9375 32.558594 13.9375 C 33.800781 13.9375 34.339844 14.953125 34.351562 15.769531 Z M 40.792969 18.867188 L 40.792969 15.089844 C 40.792969 13.757812 39.835938 13.234375 38.6875 13.234375 C 37.796875 13.234375 37.097656 13.527344 36.511719 14.144531 L 36.90625 14.734375 C 37.390625 14.210938 37.921875 13.972656 38.574219 13.972656 C 39.363281 13.972656 39.949219 14.394531 39.949219 15.132812 L 39.949219 16.125 C 39.507812 15.613281 38.890625 15.371094 38.144531 15.371094 C 37.222656 15.371094 36.242188 15.953125 36.242188 17.183594 C 36.242188 18.378906 37.222656 19.003906 38.144531 19.003906 C 38.878906 19.003906 39.496094 18.742188 39.949219 18.242188 L 39.949219 18.867188 Z M 38.449219 18.390625 C 37.660156 18.390625 37.109375 17.890625 37.109375 17.195312 C 37.109375 16.488281 37.660156 15.988281 38.449219 15.988281 C 39.046875 15.988281 39.621094 16.214844 39.949219 16.671875 L 39.949219 17.707031 C 39.621094 18.164062 39.046875 18.390625 38.449219 18.390625 Z M 44.875 19.003906 C 45.863281 19.003906 46.449219 18.59375 46.867188 18.046875 L 46.304688 17.523438 C 45.945312 18.015625 45.480469 18.242188 44.925781 18.242188 C 43.765625 18.242188 43.042969 17.332031 43.042969 16.113281 C 43.042969 14.894531 43.765625 13.996094 44.925781 13.996094 C 45.488281 13.996094 45.949219 14.210938 46.304688 14.714844 L 46.867188 14.191406 C 46.449219 13.644531 45.863281 13.234375 44.875 13.234375 C 43.253906 13.234375 42.160156 14.484375 42.160156 16.113281 C 42.160156 17.753906 43.253906 19 44.875 19 Z M 49.421875 19.003906 C 49.917969 19.003906 50.222656 18.855469 50.4375 18.652344 L 50.191406 18.015625 C 50.078125 18.140625 49.855469 18.242188 49.613281 18.242188 C 49.242188 18.242188 49.0625 17.945312 49.0625 17.535156 L 49.0625 14.121094 L 50.167969 14.121094 L 50.167969 13.371094 L 49.0625 13.371094 L 49.0625 11.867188 L 48.21875 11.867188 L 48.21875 13.371094 L 47.316406 13.371094 L 47.316406 14.121094 L 48.21875 14.121094 L 48.21875 17.71875 C 48.21875 18.539062 48.625 19.007812 49.421875 19.007812 Z M 49.421875 19.003906 " fill-opacity="1" fill-rule="evenodd"/></g></svg>